<svg xmlns="http://www.w3.org/2000/svg" xmlns:xlink="http://www.w3.org/1999/xlink" width="168" zoomAndPan="magnify" viewBox="0 0 126 30.000001" height="40" preserveAspectRatio="xMidYMid meet" version="1.0"><defs><g/><clipPath id="478a70ff1e"><path d="M 13 1 L 18 1 L 18 13 L 13 13 Z M 13 1 " clip-rule="nonzero"/></clipPath><clipPath id="7f8d005317"><path d="M 10.191406 4.390625 L 15.933594 1.277344 L 20.777344 10.210938 L 15.035156 13.324219 Z M 10.191406 4.390625 " clip-rule="nonzero"/></clipPath><clipPath id="9b066de095"><path d="M 10.191406 4.390625 L 15.933594 1.277344 L 20.777344 10.210938 L 15.035156 13.324219 Z M 10.191406 4.390625 " clip-rule="nonzero"/></clipPath><clipPath id="420e11efb5"><path d="M 6 6 L 14 6 L 14 14 L 6 14 Z M 6 6 " clip-rule="nonzero"/></clipPath><clipPath id="b58ee59742"><path d="M 4.835938 11.871094 L 6.09375 6.203125 L 15.304688 8.246094 L 14.046875 13.914062 Z M 4.835938 11.871094 " clip-rule="nonzero"/></clipPath><clipPath id="b3f5a0de26"><path d="M 4.835938 11.871094 L 6.09375 6.203125 L 15.304688 8.246094 L 14.046875 13.914062 Z M 4.835938 11.871094 " clip-rule="nonzero"/></clipPath><clipPath id="a872f28a90"><path d="M 2.03125 13 L 12 13 L 12 17 L 2.03125 17 Z M 2.03125 13 " clip-rule="nonzero"/></clipPath><clipPath id="8fbd1d688a"><path d="M 4.808594 19.144531 L 1.902344 14.113281 L 8.816406 10.121094 L 11.722656 15.152344 Z M 4.808594 19.144531 " clip-rule="nonzero"/></clipPath><clipPath id="2098fdeeaa"><path d="M 4.808594 19.144531 L 1.902344 14.113281 L 8.816406 10.121094 L 11.722656 15.152344 Z M 4.808594 19.144531 " clip-rule="nonzero"/></clipPath><clipPath id="03f3b9ea42"><path d="M 3 16 L 11 16 L 11 22 L 3 22 Z M 3 16 " clip-rule="nonzero"/></clipPath><clipPath id="092bd6f676"><path d="M 7.234375 23.472656 L 2.8125 20.96875 L 6.390625 14.652344 L 10.8125 17.15625 Z M 7.234375 23.472656 " clip-rule="nonzero"/></clipPath><clipPath id="0d2161356c"><path d="M 7.234375 23.472656 L 2.8125 20.96875 L 6.390625 14.652344 L 10.8125 17.15625 Z M 7.234375 23.472656 " clip-rule="nonzero"/></clipPath><clipPath id="61a920c7a3"><path d="M 7 19 L 11 19 L 11 27 L 7 27 Z M 7 19 " clip-rule="nonzero"/></clipPath><clipPath id="527b061197"><path d="M 11.703125 25.726562 L 7.414062 26.492188 L 6.269531 20.0625 L 10.554688 19.296875 Z M 11.703125 25.726562 " clip-rule="nonzero"/></clipPath><clipPath id="6fb17b3df9"><path d="M 11.703125 25.726562 L 7.414062 26.492188 L 6.269531 20.0625 L 10.554688 19.296875 Z M 11.703125 25.726562 " clip-rule="nonzero"/></clipPath><clipPath id="af80c94d01"><path d="M 11 21 L 14 21 L 14 28 L 11 28 Z M 11 21 " clip-rule="nonzero"/></clipPath><clipPath id="26a30b5470"><path d="M 9.195312 23.855469 L 11.761719 21.289062 L 15.867188 25.394531 L 13.300781 27.960938 Z M 9.195312 23.855469 " clip-rule="nonzero"/></clipPath><clipPath id="bd3c806503"><path d="M 9.195312 23.855469 L 11.761719 21.289062 L 15.867188 25.394531 L 13.300781 27.960938 Z M 9.195312 23.855469 " clip-rule="nonzero"/></clipPath><clipPath id="15e666c549"><path d="M 14 23 L 20 23 L 20 27 L 14 27 Z M 14 23 " clip-rule="nonzero"/></clipPath><clipPath id="ad1e614d40"><path d="M 19.496094 23.707031 L 19.433594 27.335938 L 14.351562 27.246094 L 14.417969 23.617188 Z M 19.496094 23.707031 " clip-rule="nonzero"/></clipPath><clipPath id="3f9c28524c"><path d="M 19.496094 23.707031 L 19.433594 27.335938 L 14.351562 27.246094 L 14.417969 23.617188 Z M 19.496094 23.707031 " clip-rule="nonzero"/></clipPath><clipPath id="46f510cac5"><path d="M 17 22 L 21 22 L 21 24 L 17 24 Z M 17 22 " clip-rule="nonzero"/></clipPath><clipPath id="8983632372"><path d="M 19.65625 21.289062 L 20.90625 23.070312 L 18.53125 24.738281 L 17.28125 22.957031 Z M 19.65625 21.289062 " clip-rule="nonzero"/></clipPath><clipPath id="73e834e1bb"><path d="M 19.65625 21.289062 L 20.90625 23.070312 L 18.53125 24.738281 L 17.28125 22.957031 Z M 19.65625 21.289062 " clip-rule="nonzero"/></clipPath></defs><g fill="#ffffff" fill-opacity="1"><g transform="translate(13.734127, 21.048389)"><g><path d="M 3.65625 -3.75 L 2.21875 0 L -0.078125 0 L 5.859375 -15 L 7.421875 -15 L 13.375 0 L 11.078125 0 L 9.671875 -3.75 Z M 8.890625 -5.75 L 6.671875 -11.59375 L 4.4375 -5.75 Z M 8.890625 -5.75 "/></g></g></g><g fill="#ffffff" fill-opacity="1"><g transform="translate(26.184414, 21.048389)"><g><path d="M 2.4375 0 L 2.4375 -9.734375 L 0.671875 -9.734375 L 0.671875 -11.53125 L 2.4375 -11.53125 C 2.4375 -12.78125 2.765625 -13.675781 3.421875 -14.21875 C 4.078125 -14.769531 5.023438 -15.046875 6.265625 -15.046875 C 6.390625 -15.046875 6.519531 -15.039062 6.65625 -15.03125 C 6.800781 -15.019531 6.945312 -15.007812 7.09375 -15 L 7.09375 -13.265625 C 6.957031 -13.273438 6.828125 -13.285156 6.703125 -13.296875 C 6.578125 -13.304688 6.457031 -13.3125 6.34375 -13.3125 C 5.789062 -13.3125 5.34375 -13.191406 5 -12.953125 C 4.664062 -12.710938 4.5 -12.238281 4.5 -11.53125 L 6.828125 -11.53125 L 6.828125 -9.734375 L 4.5 -9.734375 L 4.5 0 Z M 2.4375 0 "/></g></g></g><g fill="#ffffff" fill-opacity="1"><g transform="translate(32.652335, 21.048389)"><g><path d="M 9.28125 -11.609375 L 11.484375 -11.609375 L 5.484375 3.53125 L 3.28125 3.53125 L 4.890625 -0.59375 L 0.421875 -11.609375 L 2.625 -11.609375 L 4.703125 -6.53125 L 5.984375 -2.796875 L 7.3125 -6.515625 Z M 9.28125 -11.609375 "/></g></g></g><g fill="#ffffff" fill-opacity="1"><g transform="translate(43.580605, 21.048389)"><g><path d="M 13.484375 0 L 11.40625 0 L 11.40625 -1.546875 C 11.132812 -1.140625 10.765625 -0.804688 10.296875 -0.546875 C 9.835938 -0.296875 9.347656 -0.113281 8.828125 0 C 8.304688 0.113281 7.800781 0.175781 7.3125 0.1875 C 5.988281 0.1875 4.867188 -0.0859375 3.953125 -0.640625 C 3.035156 -1.203125 2.335938 -1.9375 1.859375 -2.84375 C 1.390625 -3.75 1.15625 -4.726562 1.15625 -5.78125 C 1.15625 -6.800781 1.394531 -7.753906 1.875 -8.640625 C 2.363281 -9.535156 3.066406 -10.257812 3.984375 -10.8125 C 4.898438 -11.363281 6 -11.640625 7.28125 -11.640625 C 7.757812 -11.640625 8.25 -11.59375 8.75 -11.5 C 9.257812 -11.40625 9.75 -11.234375 10.21875 -10.984375 C 10.6875 -10.742188 11.085938 -10.390625 11.421875 -9.921875 L 11.40625 -11.453125 L 13.484375 -11.453125 Z M 11.40625 -5.734375 C 11.40625 -6.648438 11.195312 -7.40625 10.78125 -8 C 10.363281 -8.601562 9.835938 -9.054688 9.203125 -9.359375 C 8.566406 -9.660156 7.925781 -9.8125 7.28125 -9.8125 C 6.445312 -9.8125 5.722656 -9.628906 5.109375 -9.265625 C 4.503906 -8.910156 4.039062 -8.429688 3.71875 -7.828125 C 3.394531 -7.222656 3.234375 -6.539062 3.234375 -5.78125 C 3.234375 -5.0625 3.394531 -4.382812 3.71875 -3.75 C 4.039062 -3.125 4.503906 -2.617188 5.109375 -2.234375 C 5.710938 -1.847656 6.4375 -1.65625 7.28125 -1.65625 C 7.914062 -1.65625 8.550781 -1.800781 9.1875 -2.09375 C 9.820312 -2.382812 10.347656 -2.832031 10.765625 -3.4375 C 11.191406 -4.050781 11.40625 -4.816406 11.40625 -5.734375 Z M 11.40625 -5.734375 "/></g></g></g><g clip-path="url(#478a70ff1e)"><g clip-path="url(#7f8d005317)"><g clip-path="url(#9b066de095)"><path fill="#7ed957" d="M 15.15625 12.929688 C 15.15625 12.929688 11.722656 7.226562 15.171875 1.765625 C 15.171875 1.765625 19.792969 8.238281 15.15625 12.929688 Z M 15.15625 12.929688 " fill-opacity="1" fill-rule="nonzero"/></g></g></g><g clip-path="url(#420e11efb5)"><g clip-path="url(#b58ee59742)"><g clip-path="url(#b3f5a0de26)"><path fill="#7ed957" d="M 13.691406 13.5625 C 13.691406 13.5625 7.707031 12.515625 6.007812 6.867188 C 6.007812 6.867188 13.234375 7.558594 13.691406 13.5625 Z M 13.691406 13.5625 " fill-opacity="1" fill-rule="nonzero"/></g></g></g><g clip-path="url(#a872f28a90)"><g clip-path="url(#8fbd1d688a)"><g clip-path="url(#2098fdeeaa)"><path fill="#c1ff72" d="M 11.847656 14.796875 C 11.847656 14.796875 7.148438 17.796875 2.5 15.03125 C 2.5 15.03125 7.8125 11.019531 11.847656 14.796875 Z M 11.847656 14.796875 " fill-opacity="1" fill-rule="nonzero"/></g></g></g><g clip-path="url(#03f3b9ea42)"><g clip-path="url(#092bd6f676)"><g clip-path="url(#0d2161356c)"><path fill="#c1ff72" d="M 10.671875 16.964844 C 10.671875 16.964844 8.421875 21.386719 3.609375 21.359375 C 3.609375 21.359375 5.875 15.886719 10.671875 16.964844 Z M 10.671875 16.964844 " fill-opacity="1" fill-rule="nonzero"/></g></g></g><g clip-path="url(#61a920c7a3)"><g clip-path="url(#527b061197)"><g clip-path="url(#6fb17b3df9)"><path fill="#5ce1e6" d="M 10.394531 19.464844 C 10.394531 19.464844 11.339844 23.667969 8.105469 26.320312 C 8.105469 26.320312 6.585938 21.402344 10.394531 19.464844 Z M 10.394531 19.464844 " fill-opacity="1" fill-rule="nonzero"/></g></g></g><g clip-path="url(#af80c94d01)"><g clip-path="url(#26a30b5470)"><g clip-path="url(#bd3c806503)"><path fill="#0cc0df" d="M 13.222656 27.648438 C 13.222656 27.648438 10.46875 25.132812 11.453125 21.652344 C 11.453125 21.652344 14.964844 24.390625 13.222656 27.648438 Z M 13.222656 27.648438 " fill-opacity="1" fill-rule="nonzero"/></g></g></g><g clip-path="url(#15e666c549)"><g clip-path="url(#ad1e614d40)"><g clip-path="url(#3f9c28524c)"><path fill="#38b6ff" d="M 14.558594 23.765625 C 14.558594 23.765625 17.886719 23.675781 19.414062 26.519531 C 19.414062 26.519531 15.460938 26.941406 14.558594 23.765625 Z M 14.558594 23.765625 " fill-opacity="1" fill-rule="nonzero"/></g></g></g><g clip-path="url(#46f510cac5)"><g clip-path="url(#8983632372)"><g clip-path="url(#73e834e1bb)"><path fill="#0097b2" d="M 17.097656 23.203125 C 17.097656 23.203125 18.804688 21.882812 20.6875 22.789062 C 20.6875 22.789062 18.78125 24.515625 17.097656 23.203125 Z M 17.097656 23.203125 " fill-opacity="1" fill-rule="nonzero"/></g></g></g><g fill="#ffffff" fill-opacity="1"><g transform="translate(62.999997, 20.9105)"><g><path d="M 8.203125 0.515625 C 6.671875 0.515625 5.34375 0.203125 4.21875 -0.421875 C 3.101562 -1.046875 2.238281 -1.929688 1.625 -3.078125 C 1.019531 -4.234375 0.71875 -5.585938 0.71875 -7.140625 C 0.71875 -8.703125 1 -10.054688 1.5625 -11.203125 C 2.125 -12.347656 2.925781 -13.234375 3.96875 -13.859375 C 5.019531 -14.484375 6.265625 -14.796875 7.703125 -14.796875 C 8.722656 -14.796875 9.644531 -14.585938 10.46875 -14.171875 C 11.289062 -13.753906 11.976562 -13.160156 12.53125 -12.390625 C 13.09375 -11.617188 13.460938 -10.703125 13.640625 -9.640625 L 12.828125 -9.484375 C 12.660156 -10.410156 12.335938 -11.210938 11.859375 -11.890625 C 11.378906 -12.566406 10.785156 -13.085938 10.078125 -13.453125 C 9.367188 -13.828125 8.578125 -14.015625 7.703125 -14.015625 C 6.441406 -14.015625 5.347656 -13.726562 4.421875 -13.15625 C 3.492188 -12.59375 2.78125 -11.796875 2.28125 -10.765625 C 1.789062 -9.742188 1.546875 -8.535156 1.546875 -7.140625 C 1.546875 -5.753906 1.816406 -4.546875 2.359375 -3.515625 C 2.910156 -2.492188 3.679688 -1.695312 4.671875 -1.125 C 5.671875 -0.5625 6.847656 -0.28125 8.203125 -0.28125 C 9.273438 -0.28125 10.226562 -0.492188 11.0625 -0.921875 C 11.894531 -1.347656 12.578125 -1.945312 13.109375 -2.71875 C 13.640625 -3.5 13.972656 -4.421875 14.109375 -5.484375 L 14.921875 -5.296875 C 14.765625 -4.117188 14.378906 -3.09375 13.765625 -2.21875 C 13.160156 -1.351562 12.382812 -0.679688 11.4375 -0.203125 C 10.488281 0.273438 9.410156 0.515625 8.203125 0.515625 Z M 8.203125 0.515625 "/></g></g></g><g fill="#ffffff" fill-opacity="1"><g transform="translate(78.333788, 20.9105)"><g><path d="M 4.203125 0.40625 C 3.046875 0.40625 2.125 0.15625 1.4375 -0.34375 C 0.75 -0.84375 0.40625 -1.523438 0.40625 -2.390625 C 0.40625 -2.921875 0.554688 -3.40625 0.859375 -3.84375 C 1.160156 -4.28125 1.679688 -4.664062 2.421875 -5 C 3.171875 -5.332031 4.21875 -5.597656 5.5625 -5.796875 L 8.234375 -6.15625 C 8.597656 -6.195312 8.78125 -6.378906 8.78125 -6.703125 C 8.78125 -7.835938 8.453125 -8.648438 7.796875 -9.140625 C 7.140625 -9.640625 6.304688 -9.890625 5.296875 -9.890625 C 4.585938 -9.890625 3.945312 -9.742188 3.375 -9.453125 C 2.8125 -9.171875 2.363281 -8.796875 2.03125 -8.328125 C 1.707031 -7.859375 1.546875 -7.347656 1.546875 -6.796875 L 0.75 -7.078125 C 0.8125 -7.722656 1.046875 -8.316406 1.453125 -8.859375 C 1.859375 -9.410156 2.394531 -9.847656 3.0625 -10.171875 C 3.738281 -10.503906 4.484375 -10.671875 5.296875 -10.671875 C 6.128906 -10.671875 6.863281 -10.519531 7.5 -10.21875 C 8.144531 -9.925781 8.648438 -9.488281 9.015625 -8.90625 C 9.390625 -8.320312 9.578125 -7.578125 9.578125 -6.671875 L 9.578125 -1.328125 C 9.578125 -1.023438 9.648438 -0.785156 9.796875 -0.609375 C 9.953125 -0.441406 10.15625 -0.359375 10.40625 -0.359375 C 10.59375 -0.359375 10.785156 -0.421875 10.984375 -0.546875 C 11.191406 -0.679688 11.363281 -0.859375 11.5 -1.078125 L 12.03125 -0.546875 C 11.84375 -0.265625 11.59375 -0.0351562 11.28125 0.140625 C 10.96875 0.316406 10.644531 0.40625 10.3125 0.40625 C 9.851562 0.40625 9.484375 0.257812 9.203125 -0.03125 C 8.921875 -0.332031 8.773438 -0.726562 8.765625 -1.21875 L 8.765625 -2.421875 L 8.75 -2.421875 C 8.40625 -1.554688 7.832031 -0.867188 7.03125 -0.359375 C 6.226562 0.148438 5.285156 0.40625 4.203125 0.40625 Z M 4.265625 -0.359375 C 5.128906 -0.359375 5.894531 -0.539062 6.5625 -0.90625 C 7.238281 -1.28125 7.773438 -1.796875 8.171875 -2.453125 C 8.566406 -3.117188 8.765625 -3.898438 8.765625 -4.796875 L 8.765625 -5.46875 L 5.625 -5.015625 C 4.425781 -4.847656 3.507812 -4.628906 2.875 -4.359375 C 2.25 -4.097656 1.816406 -3.800781 1.578125 -3.46875 C 1.335938 -3.144531 1.21875 -2.785156 1.21875 -2.390625 C 1.21875 -1.773438 1.492188 -1.28125 2.046875 -0.90625 C 2.597656 -0.539062 3.335938 -0.359375 4.265625 -0.359375 Z M 4.265625 -0.359375 "/></g></g></g><g fill="#ffffff" fill-opacity="1"><g transform="translate(90.364282, 20.9105)"><g><path d="M 4.765625 -10.625 C 5.554688 -10.625 6.226562 -10.367188 6.78125 -9.859375 C 7.332031 -9.359375 7.660156 -8.546875 7.765625 -7.421875 L 7.03125 -7.171875 C 6.9375 -8.097656 6.679688 -8.773438 6.265625 -9.203125 C 5.847656 -9.628906 5.320312 -9.84375 4.6875 -9.84375 C 3.84375 -9.84375 3.15625 -9.5 2.625 -8.8125 C 2.09375 -8.132812 1.828125 -7.25 1.828125 -6.15625 L 1.828125 0 L 1.015625 0 L 1.015625 -10.21875 L 1.78125 -10.21875 L 1.78125 -8.5625 L 1.796875 -8.5625 C 2.078125 -9.1875 2.472656 -9.6875 2.984375 -10.0625 C 3.503906 -10.4375 4.097656 -10.625 4.765625 -10.625 Z M 4.765625 -10.625 "/></g></g></g><g fill="#ffffff" fill-opacity="1"><g transform="translate(98.540946, 20.9105)"><g><path d="M 6.234375 0.40625 C 5.148438 0.40625 4.179688 0.171875 3.328125 -0.296875 C 2.484375 -0.773438 1.816406 -1.429688 1.328125 -2.265625 C 0.847656 -3.109375 0.609375 -4.066406 0.609375 -5.140625 C 0.609375 -6.203125 0.828125 -7.144531 1.265625 -7.96875 C 1.710938 -8.800781 2.320312 -9.453125 3.09375 -9.921875 C 3.875 -10.390625 4.757812 -10.625 5.75 -10.625 C 6.71875 -10.625 7.554688 -10.382812 8.265625 -9.90625 C 8.984375 -9.4375 9.550781 -8.789062 9.96875 -7.96875 C 10.394531 -7.144531 10.628906 -6.195312 10.671875 -5.125 L 10.671875 -4.828125 L 1.421875 -4.828125 C 1.460938 -3.960938 1.691406 -3.191406 2.109375 -2.515625 C 2.535156 -1.847656 3.101562 -1.320312 3.8125 -0.9375 C 4.53125 -0.550781 5.347656 -0.359375 6.265625 -0.359375 C 7.140625 -0.359375 7.953125 -0.578125 8.703125 -1.015625 C 9.460938 -1.460938 10.019531 -2.03125 10.375 -2.71875 L 11.09375 -2.359375 C 10.820312 -1.816406 10.4375 -1.332031 9.9375 -0.90625 C 9.445312 -0.488281 8.882812 -0.164062 8.25 0.0625 C 7.613281 0.289062 6.941406 0.40625 6.234375 0.40625 Z M 1.453125 -5.609375 L 9.828125 -5.609375 C 9.773438 -6.453125 9.5625 -7.191406 9.1875 -7.828125 C 8.820312 -8.460938 8.34375 -8.957031 7.75 -9.3125 C 7.164062 -9.664062 6.492188 -9.84375 5.734375 -9.84375 C 4.941406 -9.84375 4.234375 -9.660156 3.609375 -9.296875 C 2.984375 -8.941406 2.484375 -8.441406 2.109375 -7.796875 C 1.734375 -7.160156 1.515625 -6.429688 1.453125 -5.609375 Z M 1.453125 -5.609375 "/></g></g></g></svg>